<?xml version="1.0" encoding="UTF-8"?>
<svg width="144px" height="144px" viewBox="0 0 144 144" version="1.1" xmlns="http://www.w3.org/2000/svg" xmlns:xlink="http://www.w3.org/1999/xlink">
    <title>Translate</title>
    <g id="ICONS" stroke="none" stroke-width="1" fill="none" fill-rule="evenodd">
        <g id="ActivedTranslate" fill="#0CA782" fill-rule="nonzero">
            <g id="Translate">
                <path d="M103.396236,120 L14.4273817,120 C6.25186538,120 0,113.76 0,105.6 L0,14.4 C0,6.23999995 6.25186538,0 14.4273817,0 L62.5186542,0 C63.4804797,0 64.4423051,0.479999953 64.9232179,1.44 L105.800799,116.64 C106.281712,117.6 105.800799,118.08 105.319887,119.04 C104.838974,120 104.358061,120 103.396236,120 Z M14.4273817,4.79999995 C9.13734173,4.79999995 4.8091272,9.11999995 4.8091272,14.4 L4.8091272,105.6 C4.8091272,110.88 9.13734173,115.2 14.4273817,115.2 L100.029847,115.2 L60.5950033,4.79999995 L14.4273817,4.79999995 Z" id="形状"></path>
                <path d="M129.596259,144 L79.1831644,144 C78.2229149,144 77.2626656,143.52 76.7825408,142.56 L67.1800467,118.56 C66.6999221,117.12 67.1800467,116.16 68.6204209,115.2 C70.060795,114.72 71.0210445,115.2 71.9812938,116.64 L81.1036632,139.2 L129.596259,139.2 C134.877631,139.2 139.198753,134.88 139.198753,129.6 L139.198753,38.4 C139.198753,33.12 134.877631,28.8 129.596259,28.8 L71.5011691,28.8 C70.060795,28.8 69.1005455,27.8399999 69.1005455,26.3999999 C69.1005455,24.9599999 70.060795,24 71.5011691,24 L129.596259,24 C137.758379,24 144,30.24 144,38.4 L144,129.6 C144,137.76 137.758379,144 129.596259,144 Z" id="路径"></path>
                <path d="M78.8593634,144 C78.3797187,144 77.4204293,144 76.9407846,143.519651 C75.9814951,142.558952 75.9814951,141.117904 76.9407846,140.157205 L100.92302,116.139738 C101.882309,115.179039 103.321243,115.179039 104.280533,116.139738 C105.239822,117.100437 105.239822,118.541485 104.280533,119.502183 L80.2982975,143.519651 C80.2982975,144 79.339008,144 78.8593634,144 Z M54.877128,81.5545852 C53.9178385,81.5545852 52.9585492,81.0742359 52.4789045,80.1135371 L40.4877867,43.6069868 L28.4966691,80.1135371 C28.0170245,81.5545852 26.5780903,82.0349345 25.6188009,81.5545852 C24.1798667,81.0742359 23.7002221,79.6331878 24.1798667,78.6724891 L38.569208,35.441048 C39.0488526,33.5196507 42.4063657,33.5196507 42.8860103,35.441048 L57.2753515,78.6724891 C57.7549962,80.1135371 56.7957069,81.0742359 55.8364174,81.5545852 L54.877128,81.5545852 Z" id="形状"></path>
                <path d="M50.6428571,67 L31.404762,67 C29.9619048,67 29,66 29,64.5 C29,63 29.9619048,62 31.404762,62 L50.6428571,62 C52.0857143,62 53.0476191,63 53.0476191,64.5 C53.0476191,66 52.0857143,67 50.6428571,67 Z M127.595238,67 L86.7142857,67 C85.2714286,67 84.3095238,66 84.3095238,64.5 C84.3095238,63 85.2714286,62 86.7142857,62 L127.595238,62 C129.038095,62 130,63 130,64.5 C130,66 129.038095,67 127.595238,67 Z" id="形状"></path>
                <path d="M103.481627,67.4 C102.065766,67.4 101.121859,66.44 101.121859,65 L101.121859,55.3999999 C101.121859,53.9599999 102.065766,53 103.481627,53 C104.897487,53 105.841394,53.96 105.841394,55.3999999 L105.841394,65 C105.841394,66.44 104.897487,67.4 103.481627,67.4 Z M96.4023238,101 C95.4584167,101 94.9864632,100.52 94.5145096,100.04 C93.5706025,99.0799999 94.0425561,97.6399999 94.9864632,96.68 C107.257255,87.56 115.280465,70.76 115.280465,65 C115.280465,63.56 116.224372,62.5999999 117.640232,62.5999999 C119.056093,62.5999999 120,63.56 120,65 C120,72.6799999 111.032883,90.92 97.8181843,100.52 C97.3462309,101 96.8742772,101 96.4023238,101 Z" id="形状"></path>
                <path d="M117.379877,106 C116.903491,106 115.950719,106 115.474333,105.516874 C114.52156,104.550622 94.5133469,84.259325 91.1786447,75.563055 C90.7022588,74.1136767 91.1786447,73.1474244 92.6078029,72.1811723 C94.036961,71.6980462 94.9897331,72.1811723 95.9425052,73.6305506 C98.3244354,79.91119 113.568788,96.3374779 119.285421,101.651865 C120.238193,102.618117 120.238193,104.067496 119.285421,105.033748 C118.809035,106 117.856263,106 117.379877,106 L117.379877,106 Z" id="路径"></path>
            </g>
        </g>
    </g>
</svg>