<?xml version="1.0" encoding="UTF-8"?>
<svg width="125px" height="143px" viewBox="0 0 125 143" version="1.1" xmlns="http://www.w3.org/2000/svg" xmlns:xlink="http://www.w3.org/1999/xlink">
    <title>dict</title>
    <g id="ICONS" stroke="none" stroke-width="1" fill="none" fill-rule="evenodd">
        <g id="ActivedDict" fill="#0CA782" fill-rule="nonzero">
            <g id="dict">
                <path d="M120.464886,26.9375673 C122.923353,26.9375673 124.920858,24.9364909 124.920858,22.4736276 L124.920858,13.4687836 C124.920858,6.08019376 118.928344,0.0769644779 111.552943,0 L13.3679146,0 C6.06934056,0 0.153654191,5.84930032 0,13.1609257 L0,120.603337 C0,132.917653 9.98752244,143 22.2798577,143 L120.464886,143 C122.923353,143 124.920858,140.998924 124.920858,138.53606 C124.920858,136.073197 122.923353,134.072121 120.464886,134.072121 L22.3566848,134.072121 C14.9812837,134.072121 8.98877019,128.068891 8.98877019,120.680301 C8.98877019,113.291712 14.9812837,107.211518 22.3566848,107.211518 L120.541713,107.211518 C123.00018,107.211518 124.997685,105.210441 124.997685,102.747578 L124.997685,21.5500538 C125.074512,19.0871905 123.230661,17.0091496 120.772194,16.8552207 C118.313727,16.7782562 116.239396,18.6254037 116.085742,21.088267 L116.085742,98.2066738 L22.3566848,98.2066738 C17.5165778,98.2836383 12.830125,99.8229279 8.98877019,102.670614 L8.98877019,13.2378902 C8.98877019,10.7750269 10.9862747,8.77395048 13.4447417,8.77395048 L111.62977,8.77395048 C114.088237,8.77395048 116.085742,10.7750269 116.085742,13.2378902 L116.085742,22.1657696 C115.932087,24.6286329 117.852765,26.7836383 120.311232,26.9375673 L120.464886,26.9375673 Z" id="路径"></path>
                <path d="M120.471306,116 L22.4519369,116 C19.9956958,116 18,118.017241 18,120.5 C18,122.982759 19.9956958,125 22.4519369,125 L120.548063,125 C123.004304,125 125,122.982759 125,120.5 C124.923242,118.017241 122.927547,116 120.471306,116 Z" id="路径"></path>
            </g>
        </g>
    </g>
</svg>