<?xml version="1.0" encoding="UTF-8"?>
<svg width="144px" height="136px" viewBox="0 0 144 136" version="1.1" xmlns="http://www.w3.org/2000/svg" xmlns:xlink="http://www.w3.org/1999/xlink">
    <title>paw</title>
    <g id="ICONS" stroke="none" stroke-width="1" fill="none" fill-rule="evenodd">
        <g id="ActivedPaw" transform="translate(0.000000, -4.000000)" fill="#0CA782" fill-rule="nonzero">
            <g id="paw" transform="translate(0.000000, 4.000000)">
                <path d="M17,85 C7.463,85 0,73.8040518 0,59.5 C0,45.1959482 7.463,34 17,34 C26.537,34 34,45.1959482 34,59.5 C34,73.8040518 26.537,85 17,85 Z M17,42.4689472 C12.988,42.4689472 8.5,49.7522418 8.5,59.5 C8.5,69.2477582 12.988,76.5310528 17,76.5310528 C21.012,76.5310528 25.5,69.2477582 25.5,59.5 C25.5,49.7522418 21.012,42.4689472 17,42.4689472 L17,42.4689472 Z" id="形状"></path>
                <path d="M51,51 C41.4704705,51 34,39.797 34,25.5 C34,11.203 41.4704705,0 51,0 C60.5295295,0 68,11.203 68,25.5 C68,39.797 60.5295295,51 51,51 Z M51,8.5 C46.9924925,8.5 42.5085085,15.7675 42.5085085,25.5 C42.5085085,35.2325 46.9924925,42.5 51,42.5 C55.0075075,42.5 59.4914915,35.2325 59.4914915,25.5 C59.4914915,15.7675 55.0075075,8.5 51,8.5 Z" id="形状"></path>
                <path d="M94,51 C84.463,51 77,39.797 77,25.5 C77,11.203 84.463,0 94,0 C103.537,0 111,11.203 111,25.5 C111,39.797 103.537,51 94,51 Z M94,8.5 C89.988,8.5 85.5,15.7675 85.5,25.5 C85.5,35.2325 89.988,42.5 94,42.5 C98.012,42.5 102.5,35.2325 102.5,25.5 C102.5,15.7675 98.012,8.5 94,8.5 Z" id="形状"></path>
                <path d="M127,85 C117.463,85 110,73.8040518 110,59.5 C110,45.1959482 117.463,34 127,34 C136.537,34 144,45.1959482 144,59.5 C144,73.8040518 136.537,85 127,85 Z M127,42.4689472 C122.988,42.4689472 118.5,49.7522418 118.5,59.5 C118.5,69.2477582 122.988,76.5310528 127,76.5310528 C131.012,76.5310528 135.5,69.2477582 135.5,59.5 C135.5,49.7522418 131.012,42.4689472 127,42.4689472 Z" id="形状"></path>
                <path d="M101.748359,136 C94.3728733,136 89.3850736,133.484667 84.9920711,131.268778 C80.9134615,129.215444 77.3956607,127.444444 72.0084971,127.444444 C66.6468248,127.444444 63.129024,129.215444 59.0504144,131.268778 C54.6404177,133.484667 49.6441209,136 42.2686351,136 C37.5442456,136 33.1002606,133.407667 30.0582975,128.890333 C24.7306137,120.967889 24.6456427,108.947333 29.8203786,95.9086667 C39.1417011,72.4493333 54.5129612,59 72,59 C89.4870388,59 104.866796,72.4493333 114.179621,95.9086667 C119.354357,108.947333 119.269386,120.967889 113.941702,128.890333 C110.908237,133.407667 106.455754,136 101.731365,136 L101.748359,136 Z M72.0084971,118.888889 C79.39248,118.888889 84.3887768,121.404222 88.7902764,123.620111 C92.8603889,125.673444 96.3781897,127.444444 101.748359,127.444444 C103.600728,127.444444 105.487085,126.221 106.923095,124.099222 C110.593844,118.649333 110.355925,109.298111 106.302806,99.0913333 C98.3410206,79.0542222 85.8417815,67.5555556 72.0084971,67.5555556 C58.1752127,67.5555556 45.6759736,79.0456667 37.7141877,99.0913333 C33.6610694,109.298111 33.4316476,118.649333 37.0938992,124.099222 C38.5214125,126.229556 40.4077695,127.444444 42.2686351,127.444444 C47.6388045,127.444444 51.1651024,125.673444 55.2522092,123.611556 C59.6537087,121.395667 64.6500055,118.880333 72.0084971,118.880333 L72.0084971,118.888889 Z" id="形状"></path>
            </g>
        </g>
    </g>
</svg>