<?xml version="1.0" standalone="no"?><!DOCTYPE svg PUBLIC "-//W3C//DTD SVG 1.1//EN" "http://www.w3.org/Graphics/SVG/1.1/DTD/svg11.dtd"><svg t="1593179542056" class="icon" viewBox="0 0 1024 1024" version="1.1" xmlns="http://www.w3.org/2000/svg" p-id="1248" xmlns:xlink="http://www.w3.org/1999/xlink" width="200" height="200"><defs><style type="text/css"></style></defs><path d="M554.666667 804.608V768a42.666667 42.666667 0 1 0-85.333334 0v36.608A170.453333 170.453333 0 0 1 347.392 682.666667h329.216A170.453333 170.453333 0 0 1 554.666667 804.608M512 469.333333c79.274667 0 145.536 54.613333 164.608 128H347.392c19.072-73.386667 85.333333-128 164.608-128m256 128h-3.84A256.341333 256.341333 0 0 0 554.666667 387.84V341.333333h85.333333c117.632 0 213.333333-95.701333 213.333333-213.333333a42.666667 42.666667 0 1 0-85.333333 0c0 70.570667-57.429333 128-128 128H384C313.429333 256 256 198.570667 256 128a42.666667 42.666667 0 1 0-85.333333 0c0 117.632 95.701333 213.333333 213.333333 213.333333h85.333333v46.506667A256.341333 256.341333 0 0 0 259.84 597.333333H256a42.666667 42.666667 0 1 0 0 85.333334h3.84c20.394667 120.874667 125.568 213.333333 252.16 213.333333s231.765333-92.458667 252.16-213.333333H768a42.666667 42.666667 0 1 0 0-85.333334" fill="#0ca782" p-id="1249" data-spm-anchor-id="a313x.7781069.0.i0" class="selected"></path></svg>