<?xml version="1.0" standalone="no"?><!DOCTYPE svg PUBLIC "-//W3C//DTD SVG 1.1//EN" "http://www.w3.org/Graphics/SVG/1.1/DTD/svg11.dtd"><svg t="1594079705019" class="icon" viewBox="0 0 1024 1024" version="1.1" xmlns="http://www.w3.org/2000/svg" p-id="5602" xmlns:xlink="http://www.w3.org/1999/xlink" width="48" height="48"><defs><style type="text/css"></style></defs><path d="M153.6 614.4c-57.4464 0-102.4-67.6864-102.4-154.1632s44.9536-154.1632 102.4-154.1632 102.4 67.6864 102.4 154.1632-44.9536 154.1632-102.4 154.1632zM153.6 357.2736c-24.1664 0-51.2 44.032-51.2 102.9632s27.0336 102.9632 51.2 102.9632 51.2-44.032 51.2-102.9632-27.0336-102.9632-51.2-102.9632z" p-id="5603"></path><path d="M358.2976 409.6c-57.344 0-102.2976-67.4816-102.2976-153.6s44.9536-153.6 102.2976-153.6 102.2976 67.4816 102.2976 153.6-44.9536 153.6-102.2976 153.6zM358.2976 153.6c-24.1152 0-51.0976 43.776-51.0976 102.4s26.9824 102.4 51.0976 102.4 51.0976-43.776 51.0976-102.4-26.9824-102.4-51.0976-102.4z" p-id="5604"></path><path d="M614.4 409.6c-57.4464 0-102.4-67.4816-102.4-153.6s44.9536-153.6 102.4-153.6 102.4 67.4816 102.4 153.6-44.9536 153.6-102.4 153.6zM614.4 153.6c-24.1664 0-51.2 43.776-51.2 102.4s27.0336 102.4 51.2 102.4 51.2-43.776 51.2-102.4-27.0336-102.4-51.2-102.4z" p-id="5605"></path><path d="M819.2 614.4c-57.4464 0-102.4-67.6864-102.4-154.1632s44.9536-154.1632 102.4-154.1632 102.4 67.6864 102.4 154.1632-44.9536 154.1632-102.4 154.1632zM819.2 357.2736c-24.1664 0-51.2 44.032-51.2 102.9632s27.0336 102.9632 51.2 102.9632 51.2-44.032 51.2-102.9632-27.0336-102.9632-51.2-102.9632z" p-id="5606"></path><path d="M665.6 921.6c-44.4416 0-74.496-15.0528-100.9664-28.3136-24.576-12.288-45.7728-22.8864-78.2336-22.8864-32.3072 0-53.504 10.5984-78.08 22.8864-26.5728 13.2608-56.6784 28.3136-101.12 28.3136-28.4672 0-55.2448-15.5136-73.5744-42.5472-32.1024-47.4112-32.6144-119.3472-1.4336-197.376 56.1664-140.3904 148.7872-220.8768 254.1568-220.8768s198.0416 80.4864 254.1568 220.8768c31.1808 78.0288 30.6688 149.9648-1.4336 197.376-18.2784 27.0336-45.1072 42.5472-73.5744 42.5472zM486.4 819.2c44.4928 0 74.5984 15.0528 101.12 28.3136 24.5248 12.288 45.7216 22.8864 78.08 22.8864 11.1616 0 22.528-7.3216 31.1808-20.0192 22.1184-32.6144 20.6848-88.576-3.7376-149.6576-47.9744-119.9104-123.2896-188.7232-206.6432-188.7232s-158.6688 68.7616-206.6432 188.7232c-24.4224 61.0816-25.8048 117.0432-3.7376 149.6576 8.6016 12.7488 19.968 20.0192 31.1808 20.0192 32.3584 0 53.6064-10.5984 78.2336-22.9376 26.5216-13.2608 56.6272-28.3136 100.9664-28.3136z" p-id="5607"></path></svg>